<svg version="1.1" id="Layer_1" xmlns="http://www.w3.org/2000/svg" xmlns:xlink="http://www.w3.org/1999/xlink" x="0px" y="0px"
	 viewBox="0 0 512 512" style="enable-background:new 0 0 512 512;" xml:space="preserve">
<g>
	<path d="M501.7,332.8H10.3c-5.7,0-10.3,4.6-10.3,10.3v135.8c0,5.7,4.6,10.3,10.3,10.3h491.4c5.7,0,10.3-4.6,10.3-10.3V343.1
		C512,337.4,507.4,332.8,501.7,332.8z M491.4,468.5H20.6V353.4h470.8V468.5z"/>
	<path d="M304.1,304.1V188.7c0-5.7-4.6-10.3-10.3-10.3h-19.1c-5.7,0-10.3,4.6-10.3,10.3v115.4H10.3c-5.7,0-10.3,4.6-10.3,10.3
		s4.6,10.3,10.3,10.3h283.5c5.7,0,10.3-4.6,10.3-10.3S309.8,304.1,304.1,304.1z"/>
	<path d="M438.3,304.1V102.3c0-5.7-4.6-10.3-10.3-10.3h-19.1c-5.7,0-10.3,4.6-10.3,10.3v201.8h-47.9V10.3C350.7,4.6,346.1,0,340.4,0
		h-19.1c-5.7,0-10.3,4.6-10.3,10.3v293.8h-47.9V136.3c0-5.7-4.6-10.3-10.3-10.3h-19.1c-5.7,0-10.3,4.6-10.3,10.3v167.8h-47.9V
		c0-5.7-4.6-10.3-10.3-10.3h-19.1c-5.7,0-10.3,4.6-10.3,10.3v216.9h-47.9V188.7c0-5.7-4.6-10.3-10.3-10.3H46.7
		c-5.7,0-10.3,4.6-10.3,10.3v115.4H10.3C4.6,304.1,0,308.7,0,314.4s4.6,10.3,10.3,10.3h491.4c5.7,0,10.3-4.6,10.3-10.3
		S507.4,304.1,501.7,304.1H438.3z"/>
</g>
</svg> 