<svg width="32" height="32" viewBox="0 0 32 32" xmlns="http://www.w3.org/2000/svg">
  <defs>
    <linearGradient id="skylineGradient" x1="0%" y1="0%" x2="0%" y2="100%">
      <stop offset="0%" style="stop-color:#2E86AB;stop-opacity:1" />
      <stop offset="100%" style="stop-color:#A23B72;stop-opacity:1" />
    </linearGradient>
  </defs>
  
  <!-- Background -->
  <rect width="32" height="32" fill="#1a1a2e"/>
  
  <!-- City skyline -->
  <rect x="2" y="16" width="3" height="14" fill="url(#skylineGradient)"/>
  <rect x="6" y="12" width="3" height="18" fill="url(#skylineGradient)"/>
  <rect x="10" y="8" width="4" height="22" fill="url(#skylineGradient)"/>
  <rect x="15" y="6" width="4" height="24" fill="url(#skylineGradient)"/>
  <rect x="20" y="10" width="3" height="20" fill="url(#skylineGradient)"/>
  <rect x="24" y="14" width="3" height="16" fill="url(#skylineGradient)"/>
  <rect x="28" y="18" width="2" height="12" fill="url(#skylineGradient)"/>
  
  <!-- Windows -->
  <rect x="3" y="18" width="1" height="1" fill="#FFD700"/>
  <rect x="3" y="21" width="1" height="1" fill="#FFD700"/>
  <rect x="7" y="14" width="1" height="1" fill="#FFD700"/>
  <rect x="7" y="17" width="1" height="1" fill="#FFD700"/>
  <rect x="12" y="10" width="1" height="1" fill="#FFD700"/>
  <rect x="12" y="13" width="1" height="1" fill="#FFD700"/>
  <rect x="17" y="8" width="1" height="1" fill="#FFD700"/>
  <rect x="17" y="11" width="1" height="1" fill="#FFD700"/>
  <rect x="21" y="12" width="1" height="1" fill="#FFD700"/>
  <rect x="25" y="16" width="1" height="1" fill="#FFD700"/>
</svg> 